<svg width="30" height="30" viewBox="0 0 30 30" fill="none" xmlns="http://www.w3.org/2000/svg">
<path fill-rule="evenodd" clip-rule="evenodd" d="M25.5 15C25.5 14.3787 24.9963 13.875 24.375 13.875L8.41812 13.875L14.6547 7.93593C15.1026 7.50529 15.1166 6.79312 14.6859 6.34525C14.2553 5.89738 13.5431 5.88342 13.0953 6.31406L4.84525 14.1891C4.62466 14.4012 4.5 14.694 4.5 15C4.5 15.306 4.62466 15.5988 4.84525 15.8109L13.0953 23.6859C13.5431 24.1166 14.2553 24.1026 14.6859 23.6547C15.1166 23.2069 15.1026 22.4947 14.6547 22.0641L8.41812 16.125L24.375 16.125C24.9963 16.125 25.5 15.6213 25.5 15Z" fill="#1D1D1D"/>
</svg>
