<svg width="20" height="21" viewBox="0 0 20 21" fill="none" xmlns="http://www.w3.org/2000/svg">
<g clip-path="url(#clip0_3_147)">
<path d="M11 10.03V4.5C11 3.43913 10.5786 2.42172 9.82843 1.67157C9.07828 0.921427 8.06087 0.5 7 0.5C5.93914 0.5 4.92172 0.921427 4.17157 1.67157C3.42143 2.42172 3 3.43913 3 4.5V10.03C2.09428 10.8401 1.45588 11.9061 1.16928 13.087C0.882674 14.2678 0.961375 15.5079 1.39497 16.6431C1.82856 17.7782 2.59661 18.755 3.59747 19.4441C4.59834 20.1332 5.78485 20.5021 7 20.5021C8.21515 20.5021 9.40166 20.1332 10.4025 19.4441C11.4034 18.755 12.1714 17.7782 12.605 16.6431C13.0386 15.5079 13.1173 14.2678 12.8307 13.087C12.5441 11.9061 11.9057 10.8401 11 10.03ZM7 19.5C5.96977 19.5004 4.96456 19.1825 4.12186 18.5899C3.27915 17.9972 2.64008 17.1588 2.29205 16.1891C1.94402 15.2194 1.90402 14.1659 2.17752 13.1726C2.45102 12.1794 3.02466 11.2948 3.82 10.64L4 10.5V4.5C4 3.70435 4.31607 2.94129 4.87868 2.37868C5.44129 1.81607 6.20435 1.5 7 1.5C7.79565 1.5 8.55871 1.81607 9.12132 2.37868C9.68393 2.94129 10 3.70435 10 4.5V10.5L10.18 10.65C10.9715 11.3058 11.5416 12.1896 11.8127 13.1811C12.0838 14.1725 12.0428 15.2235 11.6952 16.1908C11.3477 17.1581 10.7104 17.9948 9.87026 18.5869C9.0301 19.1791 8.02786 19.4979 7 19.5Z" fill="#B3EB39"/>
<path d="M8 12.78V5.5C8 5.23478 7.89464 4.98043 7.70711 4.79289C7.51957 4.60536 7.26522 4.5 7 4.5C6.73478 4.5 6.48043 4.60536 6.29289 4.79289C6.10536 4.98043 6 5.23478 6 5.5V12.78C5.61872 13.0001 5.32073 13.3399 5.15224 13.7467C4.98376 14.1534 4.9542 14.6044 5.06815 15.0297C5.1821 15.455 5.43319 15.8307 5.78248 16.0988C6.13177 16.3668 6.55973 16.5121 7 16.5121C7.44027 16.5121 7.86824 16.3668 8.21752 16.0988C8.56681 15.8307 8.8179 15.455 8.93185 15.0297C9.0458 14.6044 9.01624 14.1534 8.84776 13.7467C8.67928 13.3399 8.38128 13.0001 8 12.78Z" fill="#B3EB39"/>
<path d="M18 2.5H14V3.5H18V2.5Z" fill="#B3EB39"/>
<path d="M19 5.5H14V6.5H19V5.5Z" fill="#B3EB39"/>
<path d="M18 8.5H14V9.5H18V8.5Z" fill="#B3EB39"/>
</g>
<defs>
<clipPath id="clip0_3_147">
<rect width="20" height="20" fill="white" transform="translate(0 0.5)"/>
</clipPath>
</defs>
</svg>
