<svg width="20" height="21" viewBox="0 0 20 21" fill="none" xmlns="http://www.w3.org/2000/svg">
<path d="M2 4.5V3.5H0V4.5H1V16.5H2V15.5H20V4.5H2ZM19 14.5H2V5.5H19V14.5Z" fill="#B3EB39"/>
<path d="M14.5 12.5C14.9945 12.5 15.4778 12.3534 15.8889 12.0787C16.3 11.804 16.6205 11.4135 16.8097 10.9567C16.9989 10.4999 17.0484 9.99723 16.952 9.51228C16.8555 9.02732 16.6174 8.58187 16.2678 8.23223C15.9181 7.8826 15.4727 7.6445 14.9877 7.54804C14.5028 7.45157 14.0001 7.50108 13.5433 7.6903C13.0865 7.87952 12.696 8.19995 12.4213 8.61108C12.1466 9.0222 12 9.50555 12 10C12.0026 10.6622 12.2669 11.2966 12.7351 11.7649C13.2034 12.2331 13.8378 12.4974 14.5 12.5ZM14.5 8.5C14.7967 8.5 15.0867 8.58797 15.3334 8.7528C15.58 8.91762 15.7723 9.15189 15.8858 9.42598C15.9994 9.70007 16.0291 10.0017 15.9712 10.2926C15.9133 10.5836 15.7704 10.8509 15.5607 11.0607C15.3509 11.2704 15.0836 11.4133 14.7926 11.4712C14.5017 11.5291 14.2001 11.4994 13.926 11.3858C13.6519 11.2723 13.4176 11.08 13.2528 10.8334C13.088 10.5867 13 10.2967 13 10C13 9.60218 13.158 9.22065 13.4393 8.93934C13.7206 8.65804 14.1022 8.5 14.5 8.5Z" fill="#B3EB39"/>
<path d="M11 17.5H4V18.5H11V17.5Z" fill="#B3EB39"/>
<path d="M5 7.5H4V12.5H5V7.5Z" fill="#B3EB39"/>
<path d="M9 7.5H8V12.5H9V7.5Z" fill="#B3EB39"/>
</svg>
