<svg width="20" height="21" viewBox="0 0 20 21" fill="none" xmlns="http://www.w3.org/2000/svg">
<g clip-path="url(#clip0_3_168)">
<path d="M20 4.5H14V0.5H13V4.5H7V0.5H6V4.5H0V5.5H2V13.7C2.00264 14.9722 2.5092 16.1916 3.40881 17.0912C4.30841 17.9908 5.52777 18.4974 6.8 18.5H9V20.5H11V18.5H13.2C14.4722 18.4974 15.6916 17.9908 16.5912 17.0912C17.4908 16.1916 17.9974 14.9722 18 13.7V5.5H20V4.5ZM17 13.7C16.9974 14.707 16.5962 15.672 15.8841 16.3841C15.172 17.0962 14.207 17.4974 13.2 17.5H6.8C5.79299 17.4974 4.82798 17.0962 4.11591 16.3841C3.40384 15.672 3.00264 14.707 3 13.7V5.5H17V13.7Z" fill="#B3EB39"/>
<path d="M11.8 7.45999L10.97 6.89999L7.67999 11.84H10.45L8.19999 15.22L9.02999 15.78L12.32 10.84H9.54999L11.8 7.45999Z" fill="#B3EB39"/>
</g>
<defs>
<clipPath id="clip0_3_168">
<rect width="20" height="20" fill="white" transform="translate(0 0.5)"/>
</clipPath>
</defs>
</svg>
