<svg width="123" height="28" viewBox="0 0 123 28" fill="none" xmlns="http://www.w3.org/2000/svg">
<path d="M7.84388 27.352C6.24388 27.352 4.91054 27.064 3.84388 26.488C2.77721 25.8907 1.96654 25.0053 1.41188 23.832C0.878542 22.6373 0.569208 21.1227 0.483875 19.288L5.02788 18.52C5.07054 19.5867 5.17721 20.4827 5.34788 21.208C5.53988 21.912 5.81721 22.4453 6.17988 22.808C6.56388 23.1493 7.03321 23.32 7.58788 23.32C8.27054 23.32 8.72921 23.1067 8.96388 22.68C9.21988 22.2533 9.34788 21.7627 9.34788 21.208C9.34788 20.12 9.08121 19.2133 8.54788 18.488C8.03588 17.7413 7.35321 16.9947 6.49988 16.248L3.81188 13.912C2.85188 13.1013 2.06254 12.184 1.44388 11.16C0.846542 10.136 0.547875 8.87733 0.547875 7.384C0.547875 5.25067 1.16654 3.61867 2.40388 2.488C3.66254 1.336 5.37988 0.759998 7.55588 0.759998C8.85721 0.759998 9.92388 0.973332 10.7559 1.4C11.5879 1.82667 12.2279 2.40267 12.6759 3.128C13.1452 3.832 13.4652 4.61067 13.6359 5.464C13.8279 6.296 13.9452 7.128 13.9879 7.96L9.47588 8.632C9.43321 7.84267 9.35854 7.14933 9.25188 6.552C9.16654 5.95466 8.97454 5.48533 8.67588 5.144C8.39854 4.80267 7.97188 4.632 7.39587 4.632C6.77721 4.632 6.31854 4.86666 6.01988 5.336C5.72121 5.784 5.57188 6.28533 5.57188 6.84C5.57188 7.75733 5.77454 8.51467 6.17988 9.112C6.60654 9.688 7.18254 10.296 7.90788 10.936L10.5319 13.24C11.6199 14.1787 12.5479 15.256 13.3159 16.472C14.1052 17.6667 14.4999 19.1493 14.4999 20.92C14.4999 22.136 14.2225 23.2347 13.6679 24.216C13.1132 25.1973 12.3345 25.9653 11.3319 26.52C10.3505 27.0747 9.18788 27.352 7.84388 27.352ZM17.3441 27V1.08H22.5921V27H17.3441ZM26.4654 27L26.9134 1.08H32.5134L35.7134 17.432L39.1374 1.08H44.5454L44.9934 27H41.1534L40.7374 9.432L37.4414 27H34.1454L30.6894 9.304L30.3374 27H26.4654ZM48.8114 27V1.08H57.0354C58.5927 1.08 59.862 1.37866 60.8434 1.976C61.8247 2.552 62.55 3.39467 63.0194 4.504C63.51 5.61333 63.7554 6.95733 63.7554 8.536C63.7554 10.392 63.4354 11.8427 62.7954 12.888C62.1767 13.9333 61.3234 14.68 60.2354 15.128C59.1474 15.5547 57.8994 15.768 56.4914 15.768H54.0914V27H48.8114ZM54.0914 12.056H55.9474C56.7154 12.056 57.302 11.9387 57.7074 11.704C58.134 11.448 58.422 11.0533 58.5714 10.52C58.7207 9.98667 58.7954 9.304 58.7954 8.472C58.7954 7.68266 58.7314 7.02133 58.6034 6.488C58.4967 5.95467 58.2407 5.53867 57.8354 5.24C57.43 4.94133 56.79 4.792 55.9154 4.792H54.0914V12.056ZM66.4676 27V1.08H71.7476V23.416H77.8276V27H66.4676ZM80.3114 27V1.08H91.6074V4.728H85.5914V11.608H90.2314V15.288H85.5914V23.416H91.6714V27H80.3114Z" fill="#F4F4F4"/>
<path d="M94.6626 27V1.08H100.871C102.428 1.08 103.655 1.368 104.551 1.944C105.447 2.52 106.076 3.32 106.439 4.344C106.823 5.368 107.015 6.57333 107.015 7.96C107.015 9.176 106.812 10.3067 106.407 11.352C106.023 12.376 105.372 13.1973 104.455 13.816C103.559 14.4347 102.375 14.744 100.903 14.744H97.0946V27H94.6626ZM97.0946 12.92H100.199C101.244 12.92 102.087 12.7707 102.727 12.472C103.388 12.152 103.868 11.6293 104.167 10.904C104.465 10.1787 104.615 9.19733 104.615 7.96C104.615 6.63733 104.487 5.61333 104.231 4.888C103.975 4.14133 103.527 3.62933 102.887 3.352C102.268 3.05333 101.383 2.904 100.231 2.904H97.0946V12.92ZM116.147 27.32C114.398 27.32 113.043 26.9573 112.083 26.232C111.145 25.5067 110.494 24.536 110.131 23.32C109.769 22.0827 109.587 20.7173 109.587 19.224V8.92C109.587 7.32 109.769 5.912 110.131 4.696C110.515 3.48 111.187 2.53067 112.147 1.848C113.107 1.16533 114.441 0.823999 116.147 0.823999C117.705 0.823999 118.921 1.12267 119.795 1.72C120.691 2.31733 121.331 3.17067 121.715 4.28C122.099 5.368 122.291 6.66933 122.291 8.184V9.752H119.987V8.248C119.987 7.11733 119.891 6.14666 119.699 5.336C119.529 4.52533 119.166 3.896 118.611 3.448C118.057 3 117.246 2.776 116.179 2.776C115.006 2.776 114.121 3.02133 113.523 3.512C112.947 3.98133 112.553 4.65333 112.339 5.528C112.147 6.40267 112.051 7.416 112.051 8.568V19.608C112.051 20.888 112.169 21.9547 112.403 22.808C112.659 23.6613 113.086 24.3013 113.683 24.728C114.281 25.1547 115.113 25.368 116.179 25.368C117.267 25.368 118.078 25.1333 118.611 24.664C119.166 24.1947 119.529 23.544 119.699 22.712C119.891 21.8587 119.987 20.8667 119.987 19.736V18.04H122.291V19.576C122.291 21.0907 122.11 22.4347 121.747 23.608C121.406 24.76 120.787 25.6667 119.891 26.328C119.017 26.9893 117.769 27.32 116.147 27.32Z" fill="#B3EB39"/>
</svg>
