<svg width="30" height="30" viewBox="0 0 30 30" fill="none" xmlns="http://www.w3.org/2000/svg">
<g clip-path="url(#clip0_3_1295)">
<path fill-rule="evenodd" clip-rule="evenodd" d="M0 14.8559C0 13.8321 0.829953 13.0022 1.85375 13.0022L28.1472 13.0022V16.7097H1.85375C0.829953 16.7097 0 15.8798 0 14.8559Z" fill="#1D1D1D"/>
<path fill-rule="evenodd" clip-rule="evenodd" d="M30.0002 14.8537C30.0002 13.8299 29.1703 13 28.1465 13V16.7075C29.1703 16.7075 30.0002 15.8775 30.0002 14.8537Z" fill="#1D1D1D"/>
<path fill-rule="evenodd" clip-rule="evenodd" d="M14.8557 30C13.8319 30 13.002 29.17 13.002 28.1462L13.002 1.8528H16.7095V28.1462C16.7095 29.17 15.8795 30 14.8557 30Z" fill="#1D1D1D"/>
<path fill-rule="evenodd" clip-rule="evenodd" d="M14.8537 5.72205e-06C13.8299 5.72205e-06 13 0.829993 13 1.85376L16.7075 1.85376C16.7075 0.829993 15.8775 5.72205e-06 14.8537 5.72205e-06Z" fill="#1D1D1D"/>
</g>
<defs>
<clipPath id="clip0_3_1295">
<rect width="30" height="30" fill="white"/>
</clipPath>
</defs>
</svg>
